<svg version="1.1" xmlns="http://www.w3.org/2000/svg" viewBox="0 0 597.99658203125 693" width="1195.9931640625" height="1386"><!-- svg-source:excalidraw --><metadata><!-- payload-type:application/vnd.excalidraw+json --><!-- payload-version:2 --><!-- payload-start -->eyJ2ZXJzaW9uIjoiMSIsImVuY29kaW5nIjoiYnN0cmluZyIsImNvbXByZXNzZWQiOnRydWUsImVuY29kZWQiOiJ4nO2cWVPiSlx1MDAxYsfv51NQnNshp/dl7kTFbVxccX/rlFx1MDAxNaGFSEggiaCemu/+dlBcdIRcdTAwMThcdTAwMTJkOKkpYpVcdTAwMDWdTqeX5/fvpzf+/VYqlYOXnir/KJXVc8O0raZnXHUwMDBly9/D8IHyfMt19C00+u67T15jXHUwMDE0s1x1MDAxZFx1MDAwNL1cdTAwMWZ//1xyXHUwMDExN4D+gz8whPjtIWWrrnJcdTAwMDJfR/uf/l4q/Tv6r+9YzfDRVzS8aVSff9YtXHUwMDE5VDd+XHUwMDFl99igczB6dFx1MDAxNOkjL55qXHUwMDA0ptOyVXTrWYdDIVxmXHUwMDA0gcScjsNfdLhcdTAwMTh/XHUwMDFiWs2gXHUwMDFkZlx1MDAxOUiDclx1MDAwMVFcdTAwMTSxraxWO9D3KFx1MDAxZoe9veNHXHSMQ/zAcztq07VdL8zIX1CFf1E27s1Gp+W5T05zXHUwMDFjJ/BMx++Zni53XHUwMDE078Gy7XrwMkpdV52u2HLsXHUwMDFkV1x1MDAxZlmNhX/2lH5pq+0oP6xbOFx1MDAwZXV7ZsNcbsJKgCAqRZjD3l5z1Fxm/0R58syu2lx1MDAwYtvBebLtcbDlNFVYu2VcdTAwMTNMvc1pvr9tKravVJhcdTAwMDJEXGJDSjGK6j4yXHUwMDE4XHUwMDFjXHUwMDBmO3KdkeloQ1x1MDAwMZRxXHUwMDE2PWT5W9pmglGaXHUwMDBmpu2rqKbDXHUwMDFjbMftadKmpkwmUM9R9U9YXHUwMDFjunvyjtj149DZOrts7p9ucmQ2yuN4v74nJ/v2MN1jfNC7Pr48dMFcdTAwMTWsNa5bl3bsLVx1MDAxZu83Pc9cdTAwMWROpPv+Kar9p17TfCsn5IJcdTAwMDBcdTAwMGU5XHUwMDExgJPxfdtyOvHKtt1GJ6qab1x1MDAxM1x1MDAxOY5xdVU5P6o+cvvn8Fx1MDAxNu72XHUwMDA0XHUwMDE57NZcdTAwMGVBdq44MVx1MDAxMFx1MDAwNoSJXHUwMDE4WFx1MDAxMNJZtDA3KJaArdnKw1x1MDAxNszBXHUwMDE2JVByzlx1MDAxMsiin5GlxVx1MDAxOFx1MDAwMcQpXHUwMDAyq0PrXHUwMDFlttjpjcWGZ9Wtat2vMiz67Vx1MDAxNaCVmu5cdTAwMTbvizPp3zWwv8te7mrdn95pfVx06TaCM3FzvtlpXHUwMDFkXHUwMDEzie5cdTAwMGXMYc1cdTAwMWWYRZSCXHUwMDEz8mLj/umV5zWeZf+1XHUwMDFlnFSfdjJLQaTMod0jXHUwMDE0XHUwMDExNOafRSY25l5EmV9zP8U9ytOnSsFcdTAwMThcdTAwMDVcIqlPJfGwXHUwMDBm8jkhgGibXFxhn1q96dxeKKaah+7R/bB7vzt8fNz/r1x1MDAwMYXdfbJfuXuooF31rFx1MDAwZdx7jG4uilxiKLOudvtcdTAwMWSzcvq6XHJvb6nz/HrtbmdcdTAwMDZcdTAwMTTDNaJLRlx1MDAxNGdHlDGOJFx1MDAwMVx1MDAwMuQhVI9CMFx1MDAwM1x1MDAxNKJcdTAwMTVcdTAwMTJKbfPo2kcn1+36Y1DzKkNw0FtBV5earqhuqOrjjqi0ao4y64JcdTAwMDZ1wYtI6KEvOauxnavL2s3RZfdBXvi0kt2bZthcdTAwMDBcdTAwMTRMjz5DU8WUzaJKpSGkIJND2rU3PVx1MDAxN1mSXHUwMDFkWUEokjJ5oPqpO42FXHUwMDA0XHUwMDE0XHSwQm96eLJ5Rnb9fav6am8/wptcdTAwMTN60IEr6Px+XHUwMDE3sqnpXjw6p9v8+ax7d7VP6ZWsXHUwMDBlzpxCXHUwMDBlrFx1MDAxZs+7w4uHPu+jvc7T/UB2Wcf/mUdcbqZcdTAwMTSATHxfd9ZcdTAwMGKRT/P405RQXCJFPn9ad9VcdTAwMWOG/fzq0G9cdTAwMDJ3u7bTXG6Oa5X70+PzYzK4V7crQCk13SHdPMY3bKhuXHUwMDFkXHUwMDEzXHUwMDFjUuuhX7lrXHUwMDE1XHUwMDEx0XbTuXx96Fe7XHUwMDBmoLNbvUJcdTAwMTIx6S+MKJV8jeh76IKIslx1MDAxY4hcdTAwMTLBQu9YJk12fTqNXGYlXHUwMDAwgEtcIlY45oXb9LHv9rBHXvbVWf1xb+ckMP84ltJn5WKZnOJcYslpjlx1MDAxODVm545cdTAwMTMwXCJ0jVEyRjxcdTAwMTmjyLw+mlx1MDAwM72H/JqhSzIqMVx1MDAxMDmHq5JhwIhkXHUwMDBiOb/LNNRxcM+14vBGn0qRwYy+jD//831+bERcZprrXHUwMDAxMlx1MDAxMX2GTdv0g02327VcdTAwMDJd8JMw0zO6XHUwMDE3mF5Q1Y1sOa3pxnxfOt3LsE5cdTAwMWFaj9t48idZXHTtzOyFlT1jXHLKac5/Y/pcblLqXHUwMDFiyaz9haXcXGJFoq3MXHUwMDE5XHUwMDEz1/mZvFx1MDAxN1dcdTAwMTNl37vDTGqVPpWYqlZcdTAwMTBcdTAwMThkWrAgR1x0iqVcdTAwMDMn4q1Va65qia+rXHUwMDE24Vx1MDAxMGDMcoqW4Fx1MDAxOHMxMcXyR4lWZcpcdTAwMTDDK4tyzT61XHUwMDFh+cosJlx1MDAxNWlIjFx0lXrERVx1MDAwNedCqFxun4j3JUlLX1x0K6akpc+9pklcdTAwMWHm2uOKxi5rSVuapMmvS1x1MDAxYVwiXHUwMDE0U4AmJlx1MDAxNbJoXHUwMDFhXHUwMDE0XFxSgkFcdTAwMTTjj9K0hSSt6Io2XHUwMDE2NFx1MDAwZSjXLb5EPUtfOCymnqVPTKfpXHUwMDE5xMKIrZ9cdTAwMDCWIGdMXHUwMDE4kMhcdTAwMDQ941x1MDAwNpNERtda3pLlbWNcdONMrSqAiMRZnJRlUc6gXGY9vT9T3iogstbwyqJuTFx1MDAxYm1kzOE1Y8arULsveE5cdTAwMGJqW/qS66THyFxmSVx1MDAwMaGIaWeR6sbGiVxua2BAQXQx8V9cdGD6XG5amlx1MDAwMFx1MDAxMt30a1x1MDAwMVxcgVx1MDAwMFa/LICCXHQqIMzn3Vx0SFx1MDAwNVx1MDAxNn+s/C2gfpWCyN9cdTAwMTdcdTAwMWOt3y1/Y/VjhFx1MDAwMipcdTAwMTEptvqlL07mWU8gXHUwMDEwr1x1MDAxN1x1MDAxND5aeTGd2/y6zuFwq1x1MDAxMqG5/DyEMFxu3cP1ckLCXHUwMDAzq1x1MDAxOb1mlpelXHRa+r6ZYo5V01dp84hcdTAwMTWdct3WYrWAWG19WaxcdTAwMTDAhFx1MDAxMYjyrX5iylx1MDAwMWVwse30a7Vahlp9QTtcdTAwMTZUq/QtRMVUq+SDjTNqNbWf5U2sgDRcYsC6U8bxXHUwMDFkytog0KxuQe2WQ4kxlYm7lEMrWqtYsoptJ6tY0lYoXHUwMDA0XHUwMDE44JyyXFxcdTAwMDdqoaBaXpCAxVx1MDAxOUSOXGZOl/1cXDXajtUw7VL/SflBWJCo3lxcJ6hbr6NcdTAwMTKwqdCa2bXsl6lGXGZcdTAwMTPcsK1WWFx1MDAxMeWGzrvyypP1XHUwMDExhC9cdTAwMTlH6FrN5uRcdTAwMWW/hk7UtFx1MDAxY+Vl2VhRdj2rZTmmfZ6hXHUwMDEw5lPgnin/rVx1MDAxONN1oKtL7X7wXHUwMDAxNVMpXHUwMDFjJ5+izMAxlMLggkGMZk5cdTAwMWFAXGZcdTAwMTNBXHUwMDE2wiCIc5x83GBccvLnINeyg6ydXHUwMDBlgahcdTAwMTQzLkYqyFx1MDAwMOpWXHUwMDAxrED7XHUwMDE3PkA+U4FnqYFmwPVcdTAwMWFtTYFnXHUwMDA2rldcdTAwMDSY55x6j8M8ryBLXHUwMDAyOvl0ZJaOXHUwMDE5XHUwMDFhnEk62ytTfSPpID4yXGJcdTAwMDPrTjkvyzvZWdZCXG6wwJzkg5lcdTAwMGJcYjmflICiwKxbcPOlpF9lXHUwMDA1lvJLptMsbVV7qmmZRVx1MDAwMHrO2fU40FlcbrMsqFx1MDAxM1x1MDAwZlRmgFpcdTAwMWKQXHUwMDAx9EhcdTAwMTRyOfPzXHUwMDFhn4HNqSElhowk/8jGmu3P2d7NzrbgXGZcdJrT4SZYMlxu2GInXHUwMDBmfivZ9ZA9ncnzsC1cdTAwMWZcXK+rMz5CoraxV69cdTAwMTeB7jlcdTAwMDff43RnLdCSXGJPPn+ZxVx1MDAwZlx1MDAxN9KghJD4XHUwMDAwebRiy1GSI67HeoaEMO66r1x0z0D4Xo7eW1x1MDAwZniwXHUwMDAwKPFcdTAwMDDgp4hLQiRcdTAwMDVyseP6v1x1MDAxNfE93YThKbZ7W5XUwGqGdJR8XHUwMDE1XHUwMDE0XHUwMDAx7jln5uNwzy/KkrBOPluZXHUwMDA1ay5ccsSFXHUwMDAwYlx1MDAxNmtcIlFix424QVxiwmKNdW6s93NgzVx1MDAxMcJcXEqQzynXj3EhXHUwMDE5Llx1MDAxZdf10U8rVjRR4ZhUXHUwMDFid7PU89xur1x1MDAxMGDPOVx1MDAwMT/Ta88vy5LITj6RmanDhoZcdTAwMDBcdTAwMTAljbVcdTAwMTliyWQjXHUwMDAzS75cdTAwMWVuL0D2QVx1MDAwZbIpXHKnwVx1MDAxME7aSZVyXHUwMDFjOOzo9YPFXHUwMDFibm84/lB5I6/VXHUwMDFizz7ppm2oXCKgPefkfFx1MDAxY+0shcnP9rf3NcSy2evVXHUwMDAz3Vx1MDAwMOWPdTptcFbzvWY+ftfwLSxQ4dJcdTAwMWKdXGI6dJtq21x03YlYY5RcdTAwMDeWXHUwMDFhVmf5+uthdIUnrUfyXHUwMDEysqVGK8y/vv36P1Y9VoEifQ==<!-- payload-end --></metadata><defs><style class="style-fonts">
      </style></defs><rect x="0" y="0" width="597.99658203125" height="693" fill="#ffffff"/><g stroke-linecap="round" transform="translate(190.2109375 10) rotate(0 104.7890625 28.5)"><path d="M0 0 C41.84 1, 85.11 2.17, 209.58 0 M0 0 C43.97 -1.69, 90.36 -1.43, 209.58 0 M209.58 0 C210.74 13.64, 207.86 26.41, 209.58 57 M209.58 0 C209.71 15.14, 209.7 27.76, 209.58 57 M209.58 57 C159.74 57.15, 108.79 54.92, 0 57 M209.58 57 C144.55 58.51, 80.23 58.46, 0 57 M0 57 C-0.93 43.32, 1.23 29.91, 0 0 M0 57 C0.42 43.37, -0.41 30.58, 0 0" stroke="#1e1e1e" stroke-width="2" fill="none"/></g><g transform="translate(211.4033203125 26.25) rotate(0 83.5966796875 12.25)"><text x="83.5966796875" y="14.3203125" font-family="Helvetica, Segoe UI Emoji" font-size="16px" fill="#1e1e1e" text-anchor="middle" style="white-space: pre;" direction="ltr" dominant-baseline="alphabetic">Technical question</text></g><g stroke-linecap="round" transform="translate(176.23046875 117) rotate(0 118.76953125 28.5)"><path d="M0 0 C76.52 1.07, 153.87 -1.02, 237.54 0 M0 0 C74.88 2.58, 150.18 1.22, 237.54 0 M237.54 0 C238.35 11.87, 238.14 25.42, 237.54 57 M237.54 0 C238.07 12.79, 236.4 23.75, 237.54 57 M237.54 57 C180.49 57.13, 120.59 57.62, 0 57 M237.54 57 C174.44 58.01, 110.92 56.59, 0 57 M0 57 C-0.8 36.88, -1.16 12.03, 0 0 M0 57 C-0.38 38.54, 0.13 19.94, 0 0" stroke="#1e1e1e" stroke-width="2" fill="none"/></g><g transform="translate(200.7861328125 133.25) rotate(0 94.2138671875 12.25)"><text x="94.2138671875" y="14.3203125" font-family="Helvetica, Segoe UI Emoji" font-size="16px" fill="#1e1e1e" text-anchor="middle" style="white-space: pre;" direction="ltr" dominant-baseline="alphabetic">Retrieval orchestrator</text></g><g stroke-linecap="round" transform="translate(10 224) rotate(0 130 42)"><path d="M0 0 C68.77 0.98, 134.94 -0.09, 260 0 M0 0 C99.71 0.51, 197.41 -0.09, 260 0 M260 0 C259.32 27.99, 259.66 53.38, 260 84 M260 0 C261.14 19.58, 259.92 40.22, 260 84 M260 84 C190.61 83.61, 121.98 84.4, 0 84 M260 84 C167.08 85.24, 72.02 85.59, 0 84 M0 84 C1.9 55.32, -1.14 28.98, 0 0 M0 84 C-0.75 58.1, -1.19 31.21, 0 0" stroke="#1e1e1e" stroke-width="2" fill="none"/></g><g transform="translate(23.76953125 253.75) rotate(0 116.23046875 12.25)"><text x="116.23046875" y="14.3203125" font-family="Helvetica, Segoe UI Emoji" font-size="16px" fill="#1e1e1e" text-anchor="middle" style="white-space: pre;" direction="ltr" dominant-baseline="alphabetic">spaCy entities and DBpedia</text></g><g stroke-linecap="round" transform="translate(320 224) rotate(0 130 42)"><path d="M0 0 C73.8 -2.18, 145.19 0.49, 260 0 M0 0 C54.16 -2.44, 107.66 -1.64, 260 0 M260 0 C260.72 30.72, 258.55 62.27, 260 84 M260 0 C259.91 29.84, 260.16 60.55, 260 84 M260 84 C174.96 83.79, 92.02 84.58, 0 84 M260 84 C179.96 85.49, 99.96 86.29, 0 84 M0 84 C-0.72 59.41, 0.63 37.69, 0 0 M0 84 C0.46 53.67, -0.33 23.95, 0 0" stroke="#1e1e1e" stroke-width="2" fill="none"/></g><g transform="translate(312.00341796875 253.75) rotate(0 137.99658203125 12.25)"><text x="137.99658203125" y="14.3203125" font-family="Helvetica, Segoe UI Emoji" font-size="16px" fill="#1e1e1e" text-anchor="middle" style="white-space: pre;" direction="ltr" dominant-baseline="alphabetic">SentenceTransformers and FAISS</text></g><g stroke-linecap="round" transform="translate(165.05078125 358) rotate(0 129.94921875 28.5)"><path d="M0 0 C80.96 -1.47, 165.98 -3.2, 259.9 0 M0 0 C71.73 -0.7, 144.84 0.47, 259.9 0 M259.9 0 C258.53 17.24, 258.37 39.18, 259.9 57 M259.9 0 C259.64 21.44, 259.9 44.23, 259.9 57 M259.9 57 C170.56 54.77, 81.85 55.44, 0 57 M259.9 57 C169.8 58.48, 81.08 57.63, 0 57 M0 57 C-1.82 42.06, -0.27 27.43, 0 0 M0 57 C-0.58 41.13, -0.71 27.15, 0 0" stroke="#1e1e1e" stroke-width="2" fill="none"/></g><g transform="translate(191.54443359375 374.25) rotate(0 103.45556640625 12.25)"><text x="103.45556640625" y="14.3203125" font-family="Helvetica, Segoe UI Emoji" font-size="16px" fill="#1e1e1e" text-anchor="middle" style="white-space: pre;" direction="ltr" dominant-baseline="alphabetic">Inspectable evidence set</text></g><g stroke-linecap="round" transform="translate(165 465) rotate(0 130 42)"><path d="M0 0 C88.24 3.09, 174.51 1.45, 260 0 M0 0 C100.72 1.73, 203.15 1.76, 260 0 M260 0 C258.46 18.46, 261.43 40.93, 260 84 M260 0 C258.75 29.99, 259.54 61.11, 260 84 M260 84 C186.26 85.19, 113.71 84.93, 0 84 M260 84 C156.98 82.76, 52.45 82.27, 0 84 M0 84 C0.78 51.87, 1.46 18.66, 0 0 M0 84 C-0.76 60.5, 0.53 38.35, 0 0" stroke="#1e1e1e" stroke-width="2" fill="none"/></g><g transform="translate(181.27880859375 494.75) rotate(0 113.72119140625 12.25)"><text x="113.72119140625" y="14.3203125" font-family="Helvetica, Segoe UI Emoji" font-size="16px" fill="#1e1e1e" text-anchor="middle" style="white-space: pre;" direction="ltr" dominant-baseline="alphabetic">Source-constrained prompt</text></g><g stroke-linecap="round" transform="translate(165 599) rotate(0 130 42)"><path d="M0 0 C100.9 -1.8, 198.86 1.1, 260 0 M0 0 C80.12 2.04, 160.06 0.89, 260 0 M260 0 C258.44 28.31, 261.31 55.34, 260 84 M260 0 C259.15 18.63, 259.94 36.64, 260 84 M260 84 C204.24 83.46, 147.26 84.9, 0 84 M260 84 C172.08 85.54, 83.44 86.4, 0 84 M0 84 C0.77 63.99, -0.08 41.28, 0 0 M0 84 C-0.25 57.91, 0.23 29.51, 0 0" stroke="#1e1e1e" stroke-width="2" fill="none"/></g><g transform="translate(183.80126953125 628.75) rotate(0 111.19873046875 12.25)"><text x="111.19873046875" y="14.3203125" font-family="Helvetica, Segoe UI Emoji" font-size="16px" fill="#1e1e1e" text-anchor="middle" style="white-space: pre;" direction="ltr" dominant-baseline="alphabetic">Answer and retrieval trace</text></g><g stroke-linecap="round"><g transform="translate(295 67.5) rotate(0 0 22.5)"><path d="M0.44 -0.51 C0.5 3.65, -0.05 17.47, -0.12 24.99 C-0.19 32.51, 0.08 41.24, 0.04 44.6 M0.01 0.42 C0.03 4.42, -0.56 16.85, -0.61 24.28 C-0.66 31.71, -0.31 41.42, -0.29 45" stroke="#1e1e1e" stroke-width="2" fill="none"/></g><g transform="translate(295 67.5) rotate(0 0 22.5)"><path d="M-3.98 35.44 C-3.66 37.35, -1.94 39.55, -0.29 45 M-3.98 35.44 C-2.97 37.69, -2.5 39.84, -0.29 45" stroke="#1e1e1e" stroke-width="2" fill="none"/></g><g transform="translate(295 67.5) rotate(0 0 22.5)"><path d="M3.03 35.3 C1.86 37.27, 2.08 39.5, -0.29 45 M3.03 35.3 C2.44 37.6, 1.31 39.78, -0.29 45" stroke="#1e1e1e" stroke-width="2" fill="none"/></g></g><mask/><g stroke-linecap="round"><g transform="translate(212.43 174.5) rotate(0 -36.215 22.5)"><path d="M-1.1 -0.26 C-13.03 3.68, -59.32 17.18, -71.36 24.59 C-83.39 31.99, -73.17 40.62, -73.3 44.18 M0.52 -1.44 C-11.49 2.62, -59.84 18.42, -71.74 26.17 C-83.64 33.92, -70.87 42.12, -70.86 45.07" stroke="#1e1e1e" stroke-width="2" fill="none"/></g><g transform="translate(212.43 174.5) rotate(0 -36.215 22.5)"><path d="M-78.93 38.75 C-76.55 41.74, -73.7 42.08, -70.86 45.07 M-78.93 38.75 C-76.88 39.81, -75.06 41.36, -70.86 45.07" stroke="#1e1e1e" stroke-width="2" fill="none"/></g><g transform="translate(212.43 174.5) rotate(0 -36.215 22.5)"><path d="M-72.98 35.04 C-72.45 39.14, -71.48 40.66, -70.86 45.07 M-72.98 35.04 C-72.29 37, -71.86 39.42, -70.86 45.07" stroke="#1e1e1e" stroke-width="2" fill="none"/></g></g><mask/><g stroke-linecap="round"><g transform="translate(377.57 174.5) rotate(0 36.215 22.5)"><path d="M-0.26 1.07 C11.66 5.2, 60.54 16.26, 72.52 23.63 C84.5 31.01, 71.47 41.71, 71.61 45.34 M1.8 0.59 C13.49 4.94, 59.57 17.01, 71.62 24.72 C83.66 32.42, 73.66 43.17, 74.07 46.83" stroke="#1e1e1e" stroke-width="2" fill="none"/></g><g transform="translate(377.57 174.5) rotate(0 36.215 22.5)"><path d="M73.64 36.59 C74.63 40.56, 73.14 43.69, 74.07 46.83 M73.64 36.59 C73.52 40.06, 73.75 42.86, 74.07 46.83" stroke="#1e1e1e" stroke-width="2" fill="none"/></g><g transform="translate(377.57 174.5) rotate(0 36.215 22.5)"><path d="M80.32 38.71 C78.79 41.86, 74.75 44.18, 74.07 46.83 M80.32 38.71 C78 41.5, 76.03 43.61, 74.07 46.83" stroke="#1e1e1e" stroke-width="2" fill="none"/></g></g><mask/><g stroke-linecap="round"><g transform="translate(140.5 308.5) rotate(0 33.5745 23.847499999999997)"><path d="M1.07 0.09 C1.03 4.08, -12.52 15.59, -1.37 23.68 C9.79 31.77, 56.42 44.76, 67.98 48.62 M0.18 -0.91 C0.61 3.23, -10.31 16.84, 0.89 24.79 C12.09 32.73, 56.13 42.97, 67.4 46.77" stroke="#1e1e1e" stroke-width="2" fill="none"/></g><g transform="translate(140.5 308.5) rotate(0 33.5745 23.847499999999997)"><path d="M42.46 48.53 C47.8 46.5, 51.47 48.14, 67.4 46.77 M42.46 48.53 C52.09 47.54, 60.41 46.8, 67.4 46.77" stroke="#1e1e1e" stroke-width="2" fill="none"/></g><g transform="translate(140.5 308.5) rotate(0 33.5745 23.847499999999997)"><path d="M47.16 32.09 C51.48 33.52, 54.18 38.58, 67.4 46.77 M47.16 32.09 C55.07 37.27, 61.62 42.73, 67.4 46.77" stroke="#1e1e1e" stroke-width="2" fill="none"/></g></g><mask/><g stroke-linecap="round"><g transform="translate(449.5 308.5) rotate(0 -33.5745 23.847499999999997)"><path d="M0.09 -0.87 C0.08 3.09, 10.81 16.68, -0.32 24.84 C-11.45 32.99, -55.36 44.23, -66.72 48.09 M-1.33 1.29 C-0.93 5.39, 12.91 15.45, 1.96 22.89 C-8.98 30.33, -55.23 41.57, -67 45.95" stroke="#1e1e1e" stroke-width="2" fill="none"/></g><g transform="translate(449.5 308.5) rotate(0 -33.5745 23.847499999999997)"><path d="M-47.03 30.91 C-53.9 33.74, -57.45 40.84, -67 45.95 M-47.03 30.91 C-54.27 35.09, -60.99 41.59, -67 45.95" stroke="#1e1e1e" stroke-width="2" fill="none"/></g><g transform="translate(449.5 308.5) rotate(0 -33.5745 23.847499999999997)"><path d="M-42.03 47.26 C-50.43 45.55, -55.38 48.1, -67 45.95 M-42.03 47.26 C-50.82 46.02, -59.21 47.07, -67 45.95" stroke="#1e1e1e" stroke-width="2" fill="none"/></g></g><mask/><g stroke-linecap="round"><g transform="translate(295 415.5) rotate(0 0 22.5)"><path d="M-0.4 -0.38 C-0.45 3.77, 0.06 17.42, 0.15 24.93 C0.25 32.43, 0.19 41.33, 0.18 44.63 M0.4 0.62 C0.24 4.62, -0.12 16.78, -0.2 24.18 C-0.28 31.58, -0.16 41.56, -0.08 45.04" stroke="#1e1e1e" stroke-width="2" fill="none"/></g><g transform="translate(295 415.5) rotate(0 0 22.5)"><path d="M-3.74 35.47 C-2.66 39.36, -0.49 43.11, -0.08 45.04 M-3.74 35.47 C-3.1 37.57, -1.86 40.17, -0.08 45.04" stroke="#1e1e1e" stroke-width="2" fill="none"/></g><g transform="translate(295 415.5) rotate(0 0 22.5)"><path d="M3.27 35.36 C1.62 39.26, 1.06 43.06, -0.08 45.04 M3.27 35.36 C2.28 37.46, 1.88 40.09, -0.08 45.04" stroke="#1e1e1e" stroke-width="2" fill="none"/></g></g><mask/><g stroke-linecap="round"><g transform="translate(295 549.5) rotate(0 0 22.5)"><path d="M-0.38 0.15 C-0.31 4.33, 0.42 17.19, 0.43 24.68 C0.43 32.17, -0.25 41.81, -0.37 45.12 M0.43 -0.24 C0.46 3.8, 0.16 16.14, 0.21 23.81 C0.27 31.48, 0.85 42.29, 0.76 45.78" stroke="#1e1e1e" stroke-width="2" fill="none"/></g><g transform="translate(295 549.5) rotate(0 0 22.5)"><path d="M-2.88 36.2 C-1.65 39.56, -0.51 41.76, 0.76 45.78 M-2.88 36.2 C-1.88 39.47, -0.34 42.55, 0.76 45.78" stroke="#1e1e1e" stroke-width="2" fill="none"/></g><g transform="translate(295 549.5) rotate(0 0 22.5)"><path d="M4.13 36.1 C3.2 39.46, 2.19 41.7, 0.76 45.78 M4.13 36.1 C2.87 39.37, 2.16 42.48, 0.76 45.78" stroke="#1e1e1e" stroke-width="2" fill="none"/></g></g><mask/></svg>