<svg xmlns="http://www.w3.org/2000/svg" viewBox="0 0 70.2 69.6" role="img" aria-labelledby="title">
  <title id="title">Washington State University Cougar Head</title>
  <path fill="#A60F2D" d="m42.8 69.6s3.6-1.5 5.5-7.4c1 2.3 1.5 4.8 1.3 7.3-2.3.1-4.5.2-6.8.1zm14.9-11.8c-10.4 1.4-12.2-20.3-12.2-20.3s3.5 11.1 10.9 10.7c7.7-.4 5.5-12.2 5.5-12.2s7.5 20.2-4.2 21.8zm-47.7-5c-3.3 1-6.6 1.8-10 2.4 0 0 5.9-4.5 10.3-18.3l4.3 3.9-.8 2.6c1.1 1.5 1.9 3.1 2.5 4.9 1.6-3.6 1.5-7.7-.3-11.2l-.5 1.6-1.7-1.5-2.8-2.7c1.2-3.6 3-7 5.3-10.1l.4.4 3.3 3.8-1 1.7c1.5 1.7 2.9 3.4 4.2 5.3.6-3.4.4-6.8-.4-10.1l-1.5 1.4-3.6-4.2c4.5-4.7 10-8.2 16.2-10.3-.4.4-.7.8-1 1.3-2 2.9-4.1 8.1-2.4 16.4.3 1.3.7 3.2 1.1 5.1.9 3.8 1.9 8.2 2.2 10.9.7 5.7.1 9.4-1.8 11.4-1.3 1.4-3.5 2-6.4 1.9v-1.4c0-2.4-.3-4.8-.8-7.2l-.8-2.7-1.2 2.6c-1.9 4.1-8.6 14.1-17.2 16.1 2.6-4.2 4.1-9 4.4-14zm25.4 16.4h-.5-.1-.3c-.5 0-.8-.1-1.2-.1-.7-.1-1.6-.2-2.6-.4-6.4-1.1-12.9-1.7-19.4-2 6.2-3.6 10.4-9.9 12-12.5.2 1.3.3 2.5.3 3.8 0 .8 0 1.6-.1 2.2l-.1 1.1 1.1.1c.7.1 1.3.1 1.9.1 3.3 0 5.7-.8 7.3-2.5 2.4-2.5 3.1-6.7 2.3-13.1-.4-2.9-1.4-7.4-2.3-11.1-.5-2-.9-3.8-1.1-5-1.5-7.6.3-12.3 2.1-14.8 1.3-1.9 3.2-3.4 5.5-4.2h.1L43.6 0h1.1l-2.3 10.3c.7-.1 1.2-.2 1.7-.3l3-9.5h1.1l-2 9.2c2.9-.4 6.1-.7 10.3-1 .8.4 1.4 1.1 1.8 1.9l9.8-3 .4 1.1-9.5 3.7c.1.2.2.4.2.6l10.3-1.3.2 1.1-10 2c0 .2.1.4.1.6l10.4.3v1.1l-10.2.4c0 1.2-.2 2.4-.5 3.6.6 2.1.7 4.3.3 6.5-1.7-3.9-3-5.1-3-5.1-1.4-.7-2.9-1-4.5-1-2.5 0-4.8 1.1-6.4 2.9-2.3 2.6-3.5 6-3.3 9.5.2 2.4.7 5.1 1.4 8.6.7 3.6 1.6 8.1 2.3 13.5.6 4.1-.1 7.3-1.8 9.7-1.6 2.1-4 3.4-6.5 3.8h-.1-.2-.1-2.2zm10.4-51.5c-2.1-.1-4.2.4-6 1.3-1.5 1-2.5 2.7-2.6 4.5-.1.6-.1 1.2 0 1.8.8-1.5 2-2.8 3.3-3.9 2.4-1.5 5.1-2.3 7.9-2.4h.9.3c.4 0 .7-.1.8-.2 0-.1-.1-.3-.4-.4-1.3-.5-2.7-.8-4.2-.7z"/>
</svg>
