<svg width="920" height="550" viewBox="0 0 920 550" fill="none" xmlns="http://www.w3.org/2000/svg" role="img" aria-labelledby="wsu-logo-title"><title id="wsu-logo-title">Washington State University</title><style>.back{fill:#fff}.logo{fill:#981e32}.text{fill:#4d4d4d}</style>
<rect width="920" height="550" class="back"></rect>
<path d="M229.384 334.881C229.384 334.881 235.469 332.29 238.804 322.254C240.581 326.135 241.329 330.406 240.975 334.658C238.281 335.262 229.384 334.881 229.384 334.881Z" class="logo"></path>
<path d="M262.073 277.482C262.073 277.482 265.784 297.655 252.637 298.345C239.952 299.004 233.979 279.977 233.979 279.977C233.979 279.977 237.044 317.159 254.828 314.709C274.849 311.956 262.073 277.482 262.073 277.482" class="logo"></path>
<path d="M165.497 330.083C165.503 330.08 165.51 330.078 165.517 330.078C180.342 326.711 191.705 309.454 195.035 302.527L197.155 298.14L198.431 302.836C199.399 306.855 199.884 310.975 199.875 315.108C199.875 315.869 199.854 316.645 199.814 317.431C204.928 317.623 208.578 316.589 210.851 314.236C214.11 310.879 215.086 304.515 213.876 294.788C213.276 290.133 211.553 282.729 210.022 276.192C209.239 272.851 208.502 269.691 208.055 267.455C205.198 253.164 208.746 244.29 212.224 239.366C212.772 238.597 213.366 237.862 214.003 237.165C203.739 240.603 195.136 245.958 186.26 254.802L192.503 262.024L195.055 259.64C196.498 265.272 196.73 271.144 195.736 276.872C193.596 273.674 191.202 270.652 188.578 267.835L190.271 264.995L184.643 258.474L183.992 257.744C180.043 262.967 176.952 268.783 174.836 274.975L179.742 279.458L182.599 282.039L183.56 279.291C185.09 282.223 185.927 285.465 186.007 288.769C186.086 292.073 185.406 295.352 184.018 298.353C183.154 294.996 179.676 290.032 179.676 290.032L181.049 285.513L173.743 278.921C166.148 302.588 156 310.255 156 310.255C161.767 309.228 167.473 307.885 173.092 306.234C172.639 314.699 170.025 322.909 165.497 330.083" class="logo"></path>
<path d="M276.334 244.697L258.794 245.438C258.824 247.516 258.508 249.584 257.859 251.559C259.496 258.699 258.357 262.573 258.357 262.573C255.423 255.763 253.192 253.871 253.192 253.871C237.08 246.736 228.031 262.872 229.002 273.283C229.79 281.838 232.906 293.192 235.332 311.007C237.375 325.998 229.765 332.478 221.01 333.964C220.822 333.99 220.629 334.025 220.435 334.066C220.389 334.064 220.343 334.067 220.298 334.076C218.799 334.263 217.289 334.338 215.779 334.299C215.724 334.286 215.667 334.281 215.611 334.284C215.433 334.284 215.265 334.258 215.087 334.258C214.406 334.218 213.735 334.147 213.069 334.066C206.256 333.128 191.004 330.364 175.249 329.984C184.517 324.588 191.767 315.242 195.814 308.624C196.092 310.792 196.232 312.975 196.236 315.161C196.236 316.388 196.195 317.681 196.068 319L195.915 320.805L197.73 320.957C204.98 321.586 210.12 320.206 213.481 316.753C217.588 312.483 218.854 305.368 217.461 294.334C216.861 289.496 215.097 281.99 213.557 275.373C212.789 272.061 212.062 268.917 211.62 266.747C209.012 253.709 212.128 245.793 215.204 241.452C217.482 238.152 220.761 235.668 224.559 234.363C224.62 234.352 224.681 234.337 224.747 234.327L230.736 216H232.617L228.595 233.612C229.526 233.45 230.471 233.303 231.427 233.156L236.597 216.918H238.458L235.072 232.643C240.426 231.959 246.232 231.426 252.668 230.955C254.032 231.706 255.135 232.854 255.83 234.246L272.709 229.068L273.334 230.884L257.198 237.126C257.325 237.456 257.452 237.801 257.554 238.151L275.195 235.965L275.49 237.851L258.372 241.259C258.433 241.579 258.484 241.898 258.54 242.218L276.344 242.791L276.334 244.697ZM225.514 252.563C230.029 249.658 235.359 248.275 240.721 248.617C242.149 248.724 243.359 248.349 241.819 247.537C237.594 245.316 227.746 246.072 224.264 248.44C222.596 249.639 221.292 251.273 220.497 253.164C219.703 255.055 219.447 257.129 219.759 259.155C221.181 256.571 223.144 254.323 225.514 252.563" class="logo"></path>
<path d="M340.884 309.408C340.884 312.383 339.225 314.318 336.103 314.318C332.953 314.318 331.294 312.383 331.294 309.408V298.185H327.973V309.521C327.973 314.122 330.646 317.237 336.103 317.237C341.532 317.237 344.204 314.15 344.204 309.492V298.185H340.884V309.408Z" class="text"></path>
<path d="M379.593 311.176L370.002 298.186H366.626V316.9H369.917V303.544L379.705 316.9H382.885V298.186H379.593V311.176Z" class="text"></path>
<path d="M412.512 298.185H409.221V316.9H412.512V298.185Z" class="text"></path>
<path d="M446.977 313.337L441.294 298.186H437.554L444.924 316.9H449.029L456.399 298.186H452.658L446.977 313.337Z" class="text"></path>
<path d="M479.218 316.9H492.071V314.011H482.508V308.819H490.597V305.93H482.508V301.075H492.071V298.186H479.218V316.9Z" class="text"></path>
<path d="M559.504 303.151C559.504 301.748 560.742 300.822 562.683 300.822C564.704 300.787 566.657 301.554 568.111 302.955L569.996 300.513C569.055 299.638 567.948 298.956 566.741 298.508C565.534 298.061 564.251 297.855 562.964 297.905C558.858 297.905 556.129 300.289 556.129 303.376C556.129 310.278 567.071 307.837 567.071 311.765C567.071 312.999 566.001 314.318 563.302 314.318C562.188 314.319 561.086 314.09 560.064 313.646C559.043 313.202 558.124 312.552 557.366 311.737L555.538 314.262C556.528 315.264 557.718 316.047 559.032 316.56C560.345 317.072 561.752 317.303 563.161 317.236C568.224 317.236 570.418 314.571 570.418 311.456C570.418 304.47 559.504 306.63 559.504 303.151Z" class="text"></path>
<path d="M600.734 298.185H597.443V316.9H600.734V298.185Z" class="text"></path>
<path d="M627.871 301.075H633.554V316.9H636.844V301.075H642.527V298.186H627.871V301.075Z" class="text"></path>
<path d="M672.616 306.21L667.441 298.186H663.672L670.956 309.128V316.9H674.248V309.128L681.504 298.186H677.736L672.616 306.21Z" class="text"></path>
<path d="M533.181 316.9L528.507 309.408C529.67 309.094 530.69 308.389 531.394 307.413C532.098 306.437 532.444 305.249 532.373 304.049C532.402 303.25 532.26 302.453 531.959 301.712C531.657 300.971 531.202 300.302 530.623 299.748C530.044 299.194 529.354 298.769 528.599 298.5C527.844 298.23 527.041 298.123 526.241 298.185H518V316.9H521.291V309.913H525.22L529.383 316.9H533.181ZM521.291 307.023V301.075H525.792C526.201 301.046 526.613 301.101 527 301.237C527.388 301.373 527.743 301.587 528.044 301.866C528.345 302.145 528.585 302.483 528.749 302.859C528.913 303.234 528.998 303.64 528.998 304.049C528.998 304.459 528.913 304.865 528.749 305.24C528.585 305.616 528.345 305.954 528.044 306.233C527.743 306.512 527.388 306.726 527 306.862C526.613 306.998 526.201 307.053 525.792 307.023H521.291Z" class="text"></path>
<path d="M396.136 262.806C396.136 260.969 397.701 259.73 400.507 259.73C403.798 259.696 406.983 260.891 409.435 263.081L413.07 258.307C409.782 255.402 405.496 253.873 401.106 254.038C393.882 254.038 389.463 258.261 389.463 263.356C389.463 274.877 407.134 271.16 407.134 276.575C407.134 278.32 405.385 279.972 401.796 279.972C399.974 279.978 398.17 279.615 396.493 278.905C394.816 278.195 393.301 277.153 392.04 275.841L388.497 280.798C391.35 283.69 395.583 285.664 401.473 285.664C409.757 285.664 413.761 281.441 413.761 275.841C413.761 264.412 396.136 267.671 396.136 262.806Z" class="text"></path>
<path d="M438.993 266.524H424.499V254.498H417.965V285.113H424.499V272.261H438.993V285.113H445.575V254.498H438.993V266.524Z" class="text"></path>
<path d="M457.01 254.498H450.476V285.113H457.01V254.498Z" class="text"></path>
<path d="M482.788 273.73L468.569 254.498H461.851V285.113H468.385V265.147L483.019 285.113H489.322V254.498H482.788V273.73Z" class="text"></path>
<path d="M525.181 260.235H534.155V285.113H540.735V260.235H549.664V254.498H525.181V260.235Z" class="text"></path>
<path d="M565.413 253.993C556.165 253.993 549.399 260.602 549.399 269.828C549.399 279.054 556.165 285.664 565.413 285.664C574.709 285.664 581.473 279.054 581.473 269.828C581.473 260.602 574.709 253.993 565.413 253.993ZM565.413 279.88C559.754 279.88 556.119 275.52 556.119 269.828C556.119 264.091 559.754 259.776 565.413 259.776C571.074 259.776 574.755 264.091 574.755 269.828C574.755 275.52 571.074 279.88 565.413 279.88Z" class="text"></path>
<path d="M613.017 285.113V254.498H606.483V273.73L592.263 254.498H585.545V285.113H592.079V265.147L606.713 285.113H613.017Z" class="text"></path>
<path d="M645.148 262.806C645.148 260.969 646.712 259.73 649.519 259.73C652.81 259.696 655.994 260.891 658.447 263.081L662.082 258.307C658.793 255.402 654.508 253.873 650.118 254.038C642.893 254.038 638.475 258.261 638.475 263.356C638.475 274.877 656.146 271.16 656.146 276.575C656.146 278.32 654.397 279.972 650.807 279.972C648.986 279.978 647.182 279.615 645.505 278.905C643.828 278.195 642.313 277.153 641.052 275.841L637.509 280.798C640.361 283.69 644.595 285.664 650.485 285.664C658.769 285.664 662.772 281.441 662.772 275.841C662.772 264.412 645.148 267.671 645.148 262.806Z" class="text"></path>
<path d="M690.644 254.498H666.162V260.235H675.135V285.113H681.717V260.235H690.644V254.498Z" class="text"></path>
<path d="M728.469 285.113V260.235H737.397V254.498H712.914V260.235H721.889V285.113H728.469Z" class="text"></path>
<path d="M763.999 260.235V254.498H742.28V285.113H763.999V279.375H748.814V272.444H762.399V266.707H748.814V260.235H763.999Z" class="text"></path>
<path d="M377.604 254.542H369.772L358.836 285.161H366.23L368.403 278.83H378.982L381.102 285.161H388.498L377.604 254.542ZM370.221 272.584L373.688 262.226L377.154 272.584H370.221Z" class="text"></path>
<path d="M705.686 254.543H697.854L686.918 285.159H694.312L696.485 278.829H707.063L709.184 285.159H716.58L705.686 254.543ZM698.303 272.584L701.77 262.227L705.236 272.584H698.303Z" class="text"></path>
<path d="M525.186 266.901H509.826V272.609H518.399C517.997 274.688 516.871 276.558 515.22 277.888C513.569 279.219 511.5 279.925 509.378 279.88C503.719 279.88 500.083 275.52 500.083 269.828C500.083 264.091 503.719 259.776 509.378 259.776C510.877 259.734 512.363 260.074 513.694 260.763C515.025 261.453 516.158 262.469 516.986 263.716L522.703 260.622C521.204 258.506 519.202 256.792 516.877 255.635C514.552 254.478 511.975 253.914 509.378 253.993C500.13 253.993 493.364 260.602 493.364 269.828C493.364 279.054 500.13 285.664 509.378 285.664C517.708 285.664 523.988 280.349 525.207 272.609C525.522 270.719 525.515 268.789 525.186 266.901Z" class="text"></path>
<path d="M356.742 254.542L349.595 274.537L343.152 254.542H337.604L331.135 274.563L324.053 254.747L323.989 254.542H317.047L327.972 285.16H334.679L340.365 267.473L346.067 285.16H352.74L363.696 254.542H356.742Z" class="text"></path>
<path d="M297.443 239.809V331.621" class="line" stroke-miterlimit="10"></path>
</svg>